<?xml version="1.0" standalone="no"?><!DOCTYPE svg PUBLIC "-//W3C//DTD SVG 1.1//EN" "http://www.w3.org/Graphics/SVG/1.1/DTD/svg11.dtd"><svg t="1645945121265" class="icon" viewBox="0 0 1024 1024" version="1.1" xmlns="http://www.w3.org/2000/svg" p-id="1253" xmlns:xlink="http://www.w3.org/1999/xlink" width="200" height="200"><defs><style type="text/css"></style></defs><path d="M768 960H256c-70.692 0-128-57.308-128-128V192c0-70.692 57.308-128 128-128h383.726c8.302-0.078 16.629 3.037 22.963 9.371L886.598 297.28c6.273 6.273 9.398 14.499 9.383 22.721H896v512C896 902.692 838.692 960 768 960zM608 128H256c-35.346 0-64 28.654-64 64v640c0 35.346 28.654 64 64 64h512c35.346 0 64-28.654 64-64V352H640c-17.673 0-32-14.327-32-32V128z m64 160h114.682L672 173.318V288z m64 256c0 17.673-14.327 32-32 32H320c-17.673 0-32-14.327-32-32s14.327-32 32-32h384c17.673 0 32 14.327 32 32zM320 704h384c17.673 0 32 14.327 32 32s-14.327 32-32 32H320c-17.673 0-32-14.327-32-32s14.327-32 32-32z" p-id="1254"></path></svg>