<?xml version="1.0" standalone="no"?><!DOCTYPE svg PUBLIC "-//W3C//DTD SVG 1.1//EN" "http://www.w3.org/Graphics/SVG/1.1/DTD/svg11.dtd"><svg t="1644773012939" class="icon" viewBox="0 0 1024 1024" version="1.1" xmlns="http://www.w3.org/2000/svg" p-id="2046" xmlns:xlink="http://www.w3.org/1999/xlink" width="200" height="200"><defs><style type="text/css"></style></defs><path d="M574.933 85.333h274.731c49.152 0 89.003 39.851 89.003 89.003v274.73A89.04 89.04 0 0 1 912.597 512L512 912.597a89.003 89.003 0 0 1-125.867 0L111.36 637.867a89.003 89.003 0 0 1 0-125.91L512 111.403a89.003 89.003 0 0 1 62.933-26.07z m-2.56 86.4l-400.64 400.64a3.67 3.67 0 0 0 0 5.163l274.731 274.73a3.67 3.67 0 0 0 5.205 0l400.598-400.64a3.67 3.67 0 0 0 1.066-2.56v-274.73a3.67 3.67 0 0 0-3.669-3.67h-274.73a3.67 3.67 0 0 0-2.56 1.067z m88.96 297.6a106.667 106.667 0 1 1 0-213.333 106.667 106.667 0 0 1 0 213.333z m0-64a42.667 42.667 0 1 0 0-85.333 42.667 42.667 0 0 0 0 85.333z" p-id="2047"></path></svg>